<?xml version="1.0" encoding="UTF-8"?>
<!-- Generator: Adobe Illustrator 21.1.0, SVG Export Plug-In . SVG Version: 6.00 Build 0)  -->
<svg version="1.1" id="Redraw01" xmlns="http://www.w3.org/2000/svg" xmlns:xlink="http://www.w3.org/1999/xlink" x="0px" y="0px" viewBox="0 0 128.1 105.2" style="enable-background:new 0 0 128.1 105.2;" xml:space="preserve">
<style type="text/css">
	.st0{fill:#FF4338;}
</style>
<path class="st0" d="M113.1,86.2c-0.2-1.2-1.2-2.1-2.5-2.1c-1.3,0-2.5,1-2.6,2.1H113.1z M116,90.4c-0.9,1.9-2.8,3-5.3,3  c-3.6,0-6.1-2.5-6.1-6c0-3.4,2.5-6,5.9-6c3.4,0,5.8,2.5,5.8,6.1c0,0.4,0,0.7,0,0.8H108c0.1,1.3,1.3,2.3,2.8,2.3  c1.3,0,1.9-0.5,2.5-1.4L116,90.4z M92.2,81.7h3.6l2.7,7.2l2.7-7.2h3.5L100,93.2h-3.1L92.2,81.7z M84.9,90.4c1.6,0,2.9-1.3,2.9-3  s-1.3-3-2.9-3c-1.6,0-2.9,1.3-2.9,3S83.3,90.4,84.9,90.4 M91.1,81.7v11.4h-3.3v-1.5c-0.8,1.2-2.2,1.8-3.7,1.8c-3.1,0-5.4-2.6-5.4-6  c0-3.4,2.4-6,5.4-6c1.5,0,2.9,0.6,3.7,1.8v-1.5H91.1z M74.6,81.4c1,0,2,0.2,2.9,0.7v3.2c-0.8-0.6-1.6-0.8-2.5-0.8  c-1.8,0-3.1,1.2-3.1,3c0,1.7,1.3,3,3.1,3c0.9,0,1.8-0.3,2.5-0.9v3.2c-0.9,0.5-1.9,0.7-2.9,0.7c-3.5,0-6.1-2.4-6.1-6  C68.5,84,71,81.4,74.6,81.4 M60.8,90.4c1.6,0,2.9-1.3,2.9-3s-1.3-3-2.9-3c-1.6,0-2.9,1.3-2.9,3S59.1,90.4,60.8,90.4 M66.9,77v16.2  h-3.4v-1.5c-0.8,1.2-2.2,1.8-3.7,1.8c-3.1,0-5.4-2.6-5.4-6c0-3.4,2.4-6,5.4-6c1.5,0,2.9,0.6,3.7,1.8V77H66.9z M45.3,93.2h-3.4V81.7  h3.4v1.5c0.7-1.1,1.8-1.8,3.4-1.8c2.6,0,4.2,1.8,4.2,4.7v7.1h-3.4v-6.3c0-1.5-0.7-2.4-2.1-2.4c-1.3,0-2.2,1-2.2,2.6V93.2z   M36.2,81.7h3.4v11.4h-3.4V81.7z M37.9,80.5c-1.1,0-1.9-0.9-1.9-1.9c0-1,0.8-1.9,1.9-1.9c1.1,0,1.9,0.9,1.9,1.9  C39.8,79.6,39,80.5,37.9,80.5 M17.3,93.2L11.7,77h3.6l3.4,10.7L22.2,77H25l3.4,10.7L31.8,77h3.6l-5.6,16.2H27l-3.4-10.8l-3.4,10.8  H17.3z"/>
<path class="st0" d="M47,57.4h34c-4.4,4.2-10.4,6.9-17,6.9C57.5,64.3,51.5,61.7,47,57.4z M40.2,35c5.9,0.5,10.1,4.8,10.1,10  c0,3.7-2.3,7.2-5.6,9.2h-0.3c-2.8-4-4.6-8.9-4.6-14.2C39.7,38.2,39.9,36.6,40.2,35z M39.8,31.4c2.2-0.8,4.1-1,6.5-1  c7.5,0,13.4,6.1,13.4,13.5c0,3.7-1.5,7.4-4.1,10.2h-5.8c2.2-2.3,3.9-5.4,3.9-9.1c0-7-5.6-12.8-13.8-13  C39.7,31.8,39.7,31.5,39.8,31.4z M46.5,27.4c-1.4,0-3.1,0.2-5,0.6c-0.1-0.2-0.1-0.4,0-0.6c2.8-1.2,6.1-1.9,9.7-1.9  c10,0,18.2,8.3,18.2,17.5c0,4.1-1.5,8-4,11.1h-5.5c2.1-3,3.4-6.7,3.4-10.4C63.2,34.7,55.9,27.4,46.5,27.4z M52.2,22.5  c-2.3,0-4.4,0.3-7.6,1.1c-0.1-0.2-0.1-0.4,0-0.6c3.5-1.5,7.7-2.4,12.2-2.4c12.6,0,22.2,9.8,22.2,21.2c0,4.2-1.4,8.7-4.1,12.2h-5.4  c2.1-3.2,3.4-7,3.4-11.1C72.9,31.6,63.7,22.5,52.2,22.5z M88.4,40c0,5.2-1.7,10.1-4.5,14.1h-4.8c2.2-3.7,3.5-8,3.5-12.2  c0-13.2-10.7-24.2-24.7-24.2c-1.9,0-4.2,0.2-7.4,1c-0.1-0.2-0.1-0.4,0-0.6c4.4-1.7,8.4-2.4,13-2.4C77.7,15.5,88.4,26.6,88.4,40z   M64,12C48.7,12,36.2,24.5,36.2,40c0,15.6,12.7,27.9,27.9,27.9c15.6,0,28-12.7,28-27.9C92,24.7,79.6,12,64,12z"/>
</svg>