<?xml version="1.0" encoding="utf-8"?>
<!-- Generator: Adobe Illustrator 22.1.0, SVG Export Plug-In . SVG Version: 6.00 Build 0)  -->
<svg version="1.1" id="Layer_1" xmlns="http://www.w3.org/2000/svg" xmlns:xlink="http://www.w3.org/1999/xlink" x="0px" y="0px"
	 viewBox="0 0 100 100" style="enable-background:new 0 0 100 100;" xml:space="preserve">
<style type="text/css">
	.st0{fill:#EC1922;}
	.st1{fill:#FFFFFF;}
</style>
<title>icon</title>
<desc>Created with Sketch.</desc>
<path id="Combined-Shape" class="st0" d="M50,100C22.4,100,0,77.6,0,50S22.4,0,50,0s50,22.4,50,50S77.6,100,50,100z"/>
<g>
	<path class="st1" d="M58.7,27.9c-2.7-1.1-5.6-1.7-8.7-1.7c-13.1,0-23.7,10.6-23.7,23.7c0,7,3,13.2,7.8,17.5l9.1-9.1
		c-0.6-0.5-1.1-1-1.6-1.6l-4.2,4.2c-0.3,0.3-0.7,0.4-1.1,0.4c-0.4,0-0.8-0.1-1.1-0.4c-0.6-0.6-0.6-1.5,0-2.1l4.8-4.8
		c-0.5-1.3-0.8-2.7-0.8-4.2c0-5,3.4-9.2,8-10.5L58.7,27.9z M45.8,60l-9.4,9.4c0.6,0.4,1.3,0.9,2,1.3l9.9-9.9
		C47.5,60.6,46.6,60.4,45.8,60 M61.6,29.3l-9.9,9.9c0.9,0.1,1.7,0.4,2.5,0.7l9.4-9.4C62.9,30.1,62.3,29.7,61.6,29.3 M41.3,72.1
		c2.7,1.1,5.6,1.7,8.7,1.7c13.1,0,23.7-10.6,23.7-23.7c0-7-3-13.2-7.8-17.5l-9.1,9.1c0.6,0.5,1.1,1,1.6,1.6l4-4
		c0.6-0.6,1.5-0.6,2.1,0c0.6,0.6,0.6,1.5,0,2.1L60,45.8c0.5,1.3,0.8,2.7,0.8,4.2c0,5-3.4,9.2-8,10.5L41.3,72.1z"/>
</g>
</svg>
