<?xml version="1.0" encoding="utf-8"?>
<!-- Generator: Adobe Illustrator 22.1.0, SVG Export Plug-In . SVG Version: 6.00 Build 0)  -->
<svg version="1.1" id="Layer_1" xmlns="http://www.w3.org/2000/svg" xmlns:xlink="http://www.w3.org/1999/xlink" x="0px" y="0px"
	 viewBox="0 0 100 100" style="enable-background:new 0 0 100 100;" xml:space="preserve">
<style type="text/css">
	.st0{fill:#D5D5D5;}
</style>
<title>icon-mask</title>
<desc>Created with Sketch.</desc>
<path id="Combined-Shape" class="st0" d="M50,100C22.4,100,0,77.6,0,50S22.4,0,50,0s50,22.4,50,50S77.6,100,50,100z M59.7,27.9
	c-2.7-1.1-5.6-1.7-8.7-1.7c-13.1,0-23.7,10.6-23.7,23.7c0,7,3,13.2,7.8,17.5l9.1-9.1c-0.6-0.5-1.1-1-1.6-1.6l-4.2,4.2
	c-0.3,0.3-0.7,0.4-1.1,0.4c-0.4,0-0.8-0.1-1.1-0.4c-0.6-0.6-0.6-1.5,0-2.1l4.8-4.8c-0.5-1.3-0.8-2.7-0.8-4.2c0-5,3.4-9.2,8-10.5
	L59.7,27.9z M46.8,60l-9.4,9.4c0.6,0.4,1.3,0.9,2,1.3l9.9-9.9C48.5,60.6,47.6,60.4,46.8,60 M62.6,29.3l-9.9,9.9
	c0.9,0.1,1.7,0.4,2.5,0.7l9.4-9.4C63.9,30.1,63.3,29.7,62.6,29.3 M42.3,72.1c2.7,1.1,5.6,1.7,8.7,1.7c13.1,0,23.7-10.6,23.7-23.7
	c0-7-3-13.2-7.8-17.5l-9.1,9.1c0.6,0.5,1.1,1,1.6,1.6l4-4c0.6-0.6,1.5-0.6,2.1,0c0.6,0.6,0.6,1.5,0,2.1L61,45.8
	c0.5,1.3,0.8,2.7,0.8,4.2c0,5-3.4,9.2-8,10.5L42.3,72.1z"/>
</svg>
